<mxfile host="app.diagrams.net" modified="2023-10-23T12:21:08.314Z" agent="Mozilla/5.0 (Windows NT 10.0; Win64; x64) AppleWebKit/537.36 (KHTML, like Gecko) Chrome/118.0.0.0 Safari/537.36" etag="UZpOZoDYGKSeVbtB0b2d" version="22.0.6" type="device">
  <diagram id="C5RBs43oDa-KdzZeNtuy" name="Page-1">
    <mxGraphModel dx="2261" dy="756" grid="1" gridSize="10" guides="1" tooltips="1" connect="1" arrows="1" fold="1" page="1" pageScale="1" pageWidth="827" pageHeight="1169" math="0" shadow="0">
      <root>
        <mxCell id="WIyWlLk6GJQsqaUBKTNV-0" />
        <mxCell id="WIyWlLk6GJQsqaUBKTNV-1" parent="WIyWlLk6GJQsqaUBKTNV-0" />
        <mxCell id="YF8G4LJnXHX8K3Hs0ZbI-28" value="" style="rounded=0;whiteSpace=wrap;html=1;" parent="WIyWlLk6GJQsqaUBKTNV-1" vertex="1">
          <mxGeometry x="310" y="460" width="180" height="110" as="geometry" />
        </mxCell>
        <mxCell id="TbXr6djcCH5kdGfKxurd-0" value="Animator&lt;br&gt;Controller" style="rounded=0;whiteSpace=wrap;html=1;" parent="WIyWlLk6GJQsqaUBKTNV-1" vertex="1">
          <mxGeometry x="150" y="10" width="120" height="60" as="geometry" />
        </mxCell>
        <mxCell id="TbXr6djcCH5kdGfKxurd-1" value="Map Design" style="rounded=0;whiteSpace=wrap;html=1;" parent="WIyWlLk6GJQsqaUBKTNV-1" vertex="1">
          <mxGeometry x="10" y="10" width="120" height="60" as="geometry" />
        </mxCell>
        <mxCell id="TbXr6djcCH5kdGfKxurd-2" value="Architecture&lt;br&gt;Patterns" style="rounded=0;whiteSpace=wrap;html=1;" parent="WIyWlLk6GJQsqaUBKTNV-1" vertex="1">
          <mxGeometry x="430" y="10" width="120" height="60" as="geometry" />
        </mxCell>
        <mxCell id="TbXr6djcCH5kdGfKxurd-3" value="AI&lt;br&gt;(Navigation + Behaviour Tree)" style="rounded=0;whiteSpace=wrap;html=1;" parent="WIyWlLk6GJQsqaUBKTNV-1" vertex="1">
          <mxGeometry x="290" y="10" width="120" height="60" as="geometry" />
        </mxCell>
        <mxCell id="YF8G4LJnXHX8K3Hs0ZbI-1" value="Behaviour Tree&lt;br&gt;(행동 트리)" style="rounded=0;whiteSpace=wrap;html=1;" parent="WIyWlLk6GJQsqaUBKTNV-1" vertex="1">
          <mxGeometry x="10" y="180" width="120" height="60" as="geometry" />
        </mxCell>
        <mxCell id="YF8G4LJnXHX8K3Hs0ZbI-10" style="edgeStyle=orthogonalEdgeStyle;rounded=0;orthogonalLoop=1;jettySize=auto;html=1;" parent="WIyWlLk6GJQsqaUBKTNV-1" source="YF8G4LJnXHX8K3Hs0ZbI-4" target="YF8G4LJnXHX8K3Hs0ZbI-5" edge="1">
          <mxGeometry relative="1" as="geometry" />
        </mxCell>
        <mxCell id="YF8G4LJnXHX8K3Hs0ZbI-4" value="" style="rounded=1;whiteSpace=wrap;html=1;" parent="WIyWlLk6GJQsqaUBKTNV-1" vertex="1">
          <mxGeometry x="160" y="270" width="120" height="60" as="geometry" />
        </mxCell>
        <mxCell id="YF8G4LJnXHX8K3Hs0ZbI-11" style="edgeStyle=orthogonalEdgeStyle;rounded=0;orthogonalLoop=1;jettySize=auto;html=1;" parent="WIyWlLk6GJQsqaUBKTNV-1" source="YF8G4LJnXHX8K3Hs0ZbI-5" target="YF8G4LJnXHX8K3Hs0ZbI-7" edge="1">
          <mxGeometry relative="1" as="geometry" />
        </mxCell>
        <mxCell id="YF8G4LJnXHX8K3Hs0ZbI-12" style="edgeStyle=orthogonalEdgeStyle;rounded=0;orthogonalLoop=1;jettySize=auto;html=1;" parent="WIyWlLk6GJQsqaUBKTNV-1" source="YF8G4LJnXHX8K3Hs0ZbI-5" target="YF8G4LJnXHX8K3Hs0ZbI-6" edge="1">
          <mxGeometry relative="1" as="geometry">
            <Array as="points">
              <mxPoint x="220" y="470" />
              <mxPoint x="70" y="470" />
            </Array>
          </mxGeometry>
        </mxCell>
        <mxCell id="YF8G4LJnXHX8K3Hs0ZbI-13" style="edgeStyle=orthogonalEdgeStyle;rounded=0;orthogonalLoop=1;jettySize=auto;html=1;" parent="WIyWlLk6GJQsqaUBKTNV-1" source="YF8G4LJnXHX8K3Hs0ZbI-5" target="YF8G4LJnXHX8K3Hs0ZbI-8" edge="1">
          <mxGeometry relative="1" as="geometry">
            <Array as="points">
              <mxPoint x="220" y="470" />
              <mxPoint x="400" y="470" />
            </Array>
          </mxGeometry>
        </mxCell>
        <mxCell id="YF8G4LJnXHX8K3Hs0ZbI-5" value="" style="rounded=1;whiteSpace=wrap;html=1;" parent="WIyWlLk6GJQsqaUBKTNV-1" vertex="1">
          <mxGeometry x="160" y="380" width="120" height="60" as="geometry" />
        </mxCell>
        <mxCell id="YF8G4LJnXHX8K3Hs0ZbI-15" style="edgeStyle=orthogonalEdgeStyle;rounded=0;orthogonalLoop=1;jettySize=auto;html=1;" parent="WIyWlLk6GJQsqaUBKTNV-1" source="YF8G4LJnXHX8K3Hs0ZbI-6" target="YF8G4LJnXHX8K3Hs0ZbI-9" edge="1">
          <mxGeometry relative="1" as="geometry" />
        </mxCell>
        <mxCell id="YF8G4LJnXHX8K3Hs0ZbI-6" value="" style="rounded=1;whiteSpace=wrap;html=1;" parent="WIyWlLk6GJQsqaUBKTNV-1" vertex="1">
          <mxGeometry x="10" y="500" width="120" height="60" as="geometry" />
        </mxCell>
        <mxCell id="YF8G4LJnXHX8K3Hs0ZbI-7" value="" style="rounded=1;whiteSpace=wrap;html=1;" parent="WIyWlLk6GJQsqaUBKTNV-1" vertex="1">
          <mxGeometry x="160" y="500" width="120" height="60" as="geometry" />
        </mxCell>
        <mxCell id="YF8G4LJnXHX8K3Hs0ZbI-8" value="" style="rounded=1;whiteSpace=wrap;html=1;" parent="WIyWlLk6GJQsqaUBKTNV-1" vertex="1">
          <mxGeometry x="340" y="500" width="120" height="60" as="geometry" />
        </mxCell>
        <mxCell id="YF8G4LJnXHX8K3Hs0ZbI-9" value="" style="rounded=1;whiteSpace=wrap;html=1;" parent="WIyWlLk6GJQsqaUBKTNV-1" vertex="1">
          <mxGeometry x="10" y="610" width="120" height="60" as="geometry" />
        </mxCell>
        <mxCell id="YF8G4LJnXHX8K3Hs0ZbI-16" value="Success" style="rounded=1;whiteSpace=wrap;html=1;fillColor=#dae8fc;strokeColor=#6c8ebf;" parent="WIyWlLk6GJQsqaUBKTNV-1" vertex="1">
          <mxGeometry x="40" y="520" width="60" height="20" as="geometry" />
        </mxCell>
        <mxCell id="YF8G4LJnXHX8K3Hs0ZbI-17" value="Failure" style="rounded=1;whiteSpace=wrap;html=1;fillColor=#f8cecc;strokeColor=#b85450;" parent="WIyWlLk6GJQsqaUBKTNV-1" vertex="1">
          <mxGeometry x="190" y="400" width="60" height="20" as="geometry" />
        </mxCell>
        <mxCell id="YF8G4LJnXHX8K3Hs0ZbI-18" value="Root" style="text;html=1;strokeColor=#82b366;fillColor=#d5e8d4;align=center;verticalAlign=middle;whiteSpace=wrap;rounded=0;" parent="WIyWlLk6GJQsqaUBKTNV-1" vertex="1">
          <mxGeometry x="260" y="250" width="60" height="30" as="geometry" />
        </mxCell>
        <mxCell id="YF8G4LJnXHX8K3Hs0ZbI-19" value="Execution" style="text;html=1;strokeColor=#82b366;fillColor=#d5e8d4;align=center;verticalAlign=middle;whiteSpace=wrap;rounded=0;" parent="WIyWlLk6GJQsqaUBKTNV-1" vertex="1">
          <mxGeometry x="90" y="600" width="60" height="30" as="geometry" />
        </mxCell>
        <mxCell id="YF8G4LJnXHX8K3Hs0ZbI-20" value="Control&lt;br&gt;Flow" style="text;html=1;strokeColor=#82b366;fillColor=#d5e8d4;align=center;verticalAlign=middle;whiteSpace=wrap;rounded=0;" parent="WIyWlLk6GJQsqaUBKTNV-1" vertex="1">
          <mxGeometry x="260" y="360" width="60" height="30" as="geometry" />
        </mxCell>
        <mxCell id="YF8G4LJnXHX8K3Hs0ZbI-21" value="Execution" style="text;html=1;strokeColor=#82b366;fillColor=#d5e8d4;align=center;verticalAlign=middle;whiteSpace=wrap;rounded=0;" parent="WIyWlLk6GJQsqaUBKTNV-1" vertex="1">
          <mxGeometry x="230" y="490" width="60" height="30" as="geometry" />
        </mxCell>
        <mxCell id="YF8G4LJnXHX8K3Hs0ZbI-22" value="Execution" style="text;html=1;strokeColor=#82b366;fillColor=#d5e8d4;align=center;verticalAlign=middle;whiteSpace=wrap;rounded=0;" parent="WIyWlLk6GJQsqaUBKTNV-1" vertex="1">
          <mxGeometry x="410" y="490" width="60" height="30" as="geometry" />
        </mxCell>
        <mxCell id="YF8G4LJnXHX8K3Hs0ZbI-23" value="Control&lt;br&gt;Flow" style="text;html=1;strokeColor=#82b366;fillColor=#d5e8d4;align=center;verticalAlign=middle;whiteSpace=wrap;rounded=0;" parent="WIyWlLk6GJQsqaUBKTNV-1" vertex="1">
          <mxGeometry x="90" y="490" width="60" height="30" as="geometry" />
        </mxCell>
        <mxCell id="YF8G4LJnXHX8K3Hs0ZbI-24" value="최상단 노드,&amp;nbsp;&lt;br&gt;자식노드 실행" style="text;html=1;strokeColor=none;fillColor=none;align=center;verticalAlign=middle;whiteSpace=wrap;rounded=0;" parent="WIyWlLk6GJQsqaUBKTNV-1" vertex="1">
          <mxGeometry x="330" y="250" width="170" height="30" as="geometry" />
        </mxCell>
        <mxCell id="YF8G4LJnXHX8K3Hs0ZbI-26" value="Root 와 Execution 사이의 흐름을 제어하는 노드" style="text;html=1;strokeColor=none;fillColor=none;align=center;verticalAlign=middle;whiteSpace=wrap;rounded=0;" parent="WIyWlLk6GJQsqaUBKTNV-1" vertex="1">
          <mxGeometry x="330" y="360" width="170" height="30" as="geometry" />
        </mxCell>
        <mxCell id="YF8G4LJnXHX8K3Hs0ZbI-27" value="어떤 행동을 실행해보는 노드" style="text;html=1;strokeColor=none;fillColor=none;align=center;verticalAlign=middle;whiteSpace=wrap;rounded=0;" parent="WIyWlLk6GJQsqaUBKTNV-1" vertex="1">
          <mxGeometry x="160" y="600" width="170" height="30" as="geometry" />
        </mxCell>
        <mxCell id="YF8G4LJnXHX8K3Hs0ZbI-29" value="Decorator" style="text;html=1;strokeColor=#82b366;fillColor=#d5e8d4;align=center;verticalAlign=middle;whiteSpace=wrap;rounded=0;" parent="WIyWlLk6GJQsqaUBKTNV-1" vertex="1">
          <mxGeometry x="460" y="450" width="60" height="30" as="geometry" />
        </mxCell>
        <mxCell id="YF8G4LJnXHX8K3Hs0ZbI-32" value="&amp;lt;&amp;lt;abstract&amp;gt;&amp;gt;&lt;br&gt;Node" style="swimlane;fontStyle=1;align=center;verticalAlign=top;childLayout=stackLayout;horizontal=1;startSize=40;horizontalStack=0;resizeParent=1;resizeParentMax=0;resizeLast=0;collapsible=1;marginBottom=0;whiteSpace=wrap;html=1;" parent="WIyWlLk6GJQsqaUBKTNV-1" vertex="1">
          <mxGeometry x="600" y="238" width="160" height="74" as="geometry" />
        </mxCell>
        <mxCell id="YF8G4LJnXHX8K3Hs0ZbI-34" value="" style="line;strokeWidth=1;fillColor=none;align=left;verticalAlign=middle;spacingTop=-1;spacingLeft=3;spacingRight=3;rotatable=0;labelPosition=right;points=[];portConstraint=eastwest;strokeColor=inherit;" parent="YF8G4LJnXHX8K3Hs0ZbI-32" vertex="1">
          <mxGeometry y="40" width="160" height="8" as="geometry" />
        </mxCell>
        <mxCell id="YF8G4LJnXHX8K3Hs0ZbI-35" value="+ Invoke() : Result" style="text;strokeColor=none;fillColor=none;align=left;verticalAlign=top;spacingLeft=4;spacingRight=4;overflow=hidden;rotatable=0;points=[[0,0.5],[1,0.5]];portConstraint=eastwest;whiteSpace=wrap;html=1;" parent="YF8G4LJnXHX8K3Hs0ZbI-32" vertex="1">
          <mxGeometry y="48" width="160" height="26" as="geometry" />
        </mxCell>
        <mxCell id="YF8G4LJnXHX8K3Hs0ZbI-36" value="«enum»&lt;br&gt;&lt;b&gt;Result&lt;br&gt;&lt;br&gt;Success,&lt;br&gt;Failure,&lt;br&gt;Runnging&lt;br&gt;&lt;/b&gt;" style="html=1;whiteSpace=wrap;" parent="WIyWlLk6GJQsqaUBKTNV-1" vertex="1">
          <mxGeometry x="600" y="108" width="110" height="120" as="geometry" />
        </mxCell>
        <mxCell id="YF8G4LJnXHX8K3Hs0ZbI-37" value="Root" style="swimlane;fontStyle=1;align=center;verticalAlign=top;childLayout=stackLayout;horizontal=1;startSize=30;horizontalStack=0;resizeParent=1;resizeParentMax=0;resizeLast=0;collapsible=1;marginBottom=0;whiteSpace=wrap;html=1;" parent="WIyWlLk6GJQsqaUBKTNV-1" vertex="1">
          <mxGeometry x="860" y="210" width="160" height="38" as="geometry" />
        </mxCell>
        <mxCell id="YF8G4LJnXHX8K3Hs0ZbI-38" value="" style="line;strokeWidth=1;fillColor=none;align=left;verticalAlign=middle;spacingTop=-1;spacingLeft=3;spacingRight=3;rotatable=0;labelPosition=right;points=[];portConstraint=eastwest;strokeColor=inherit;" parent="YF8G4LJnXHX8K3Hs0ZbI-37" vertex="1">
          <mxGeometry y="30" width="160" height="8" as="geometry" />
        </mxCell>
        <mxCell id="YF8G4LJnXHX8K3Hs0ZbI-40" value="«interface»&lt;br&gt;&lt;b&gt;IParentOfChild&lt;br&gt;&lt;br&gt;child : Node&lt;br&gt;&lt;/b&gt;" style="html=1;whiteSpace=wrap;" parent="WIyWlLk6GJQsqaUBKTNV-1" vertex="1">
          <mxGeometry x="600" y="340" width="150" height="70" as="geometry" />
        </mxCell>
        <mxCell id="YF8G4LJnXHX8K3Hs0ZbI-42" value="«interface»&lt;br&gt;&lt;b&gt;IParentOfChildren&lt;br&gt;&lt;br&gt;children : List&amp;lt;Node&amp;gt;&lt;br&gt;&lt;/b&gt;" style="html=1;whiteSpace=wrap;" parent="WIyWlLk6GJQsqaUBKTNV-1" vertex="1">
          <mxGeometry x="600" y="420" width="150" height="70" as="geometry" />
        </mxCell>
        <mxCell id="YF8G4LJnXHX8K3Hs0ZbI-43" value="" style="endArrow=block;endSize=16;endFill=0;html=1;rounded=0;fillColor=#f8cecc;strokeColor=#b85450;" parent="WIyWlLk6GJQsqaUBKTNV-1" source="YF8G4LJnXHX8K3Hs0ZbI-37" target="YF8G4LJnXHX8K3Hs0ZbI-40" edge="1">
          <mxGeometry width="160" relative="1" as="geometry">
            <mxPoint x="500" y="340" as="sourcePoint" />
            <mxPoint x="660" y="340" as="targetPoint" />
          </mxGeometry>
        </mxCell>
        <mxCell id="YF8G4LJnXHX8K3Hs0ZbI-44" value="Condition" style="swimlane;fontStyle=1;align=center;verticalAlign=top;childLayout=stackLayout;horizontal=1;startSize=30;horizontalStack=0;resizeParent=1;resizeParentMax=0;resizeLast=0;collapsible=1;marginBottom=0;whiteSpace=wrap;html=1;" parent="WIyWlLk6GJQsqaUBKTNV-1" vertex="1">
          <mxGeometry x="860" y="260" width="160" height="64" as="geometry" />
        </mxCell>
        <mxCell id="YF8G4LJnXHX8K3Hs0ZbI-47" value="+ condition : Func&amp;lt;bool&amp;gt;" style="text;strokeColor=none;fillColor=none;align=left;verticalAlign=top;spacingLeft=4;spacingRight=4;overflow=hidden;rotatable=0;points=[[0,0.5],[1,0.5]];portConstraint=eastwest;whiteSpace=wrap;html=1;" parent="YF8G4LJnXHX8K3Hs0ZbI-44" vertex="1">
          <mxGeometry y="30" width="160" height="26" as="geometry" />
        </mxCell>
        <mxCell id="YF8G4LJnXHX8K3Hs0ZbI-45" value="" style="line;strokeWidth=1;fillColor=none;align=left;verticalAlign=middle;spacingTop=-1;spacingLeft=3;spacingRight=3;rotatable=0;labelPosition=right;points=[];portConstraint=eastwest;strokeColor=inherit;" parent="YF8G4LJnXHX8K3Hs0ZbI-44" vertex="1">
          <mxGeometry y="56" width="160" height="8" as="geometry" />
        </mxCell>
        <mxCell id="YF8G4LJnXHX8K3Hs0ZbI-46" value="" style="endArrow=block;endSize=16;endFill=0;html=1;rounded=0;fillColor=#f8cecc;strokeColor=#b85450;" parent="WIyWlLk6GJQsqaUBKTNV-1" source="YF8G4LJnXHX8K3Hs0ZbI-44" edge="1">
          <mxGeometry width="160" relative="1" as="geometry">
            <mxPoint x="928" y="198" as="sourcePoint" />
            <mxPoint x="749.9999999999998" y="365.84905660377365" as="targetPoint" />
          </mxGeometry>
        </mxCell>
        <mxCell id="YF8G4LJnXHX8K3Hs0ZbI-48" value="Execution" style="swimlane;fontStyle=1;align=center;verticalAlign=top;childLayout=stackLayout;horizontal=1;startSize=30;horizontalStack=0;resizeParent=1;resizeParentMax=0;resizeLast=0;collapsible=1;marginBottom=0;whiteSpace=wrap;html=1;" parent="WIyWlLk6GJQsqaUBKTNV-1" vertex="1">
          <mxGeometry x="860" y="506" width="160" height="64" as="geometry" />
        </mxCell>
        <mxCell id="YF8G4LJnXHX8K3Hs0ZbI-49" value="+ execute : Func&amp;lt;Result&amp;gt;" style="text;strokeColor=none;fillColor=none;align=left;verticalAlign=top;spacingLeft=4;spacingRight=4;overflow=hidden;rotatable=0;points=[[0,0.5],[1,0.5]];portConstraint=eastwest;whiteSpace=wrap;html=1;" parent="YF8G4LJnXHX8K3Hs0ZbI-48" vertex="1">
          <mxGeometry y="30" width="160" height="26" as="geometry" />
        </mxCell>
        <mxCell id="YF8G4LJnXHX8K3Hs0ZbI-50" value="" style="line;strokeWidth=1;fillColor=none;align=left;verticalAlign=middle;spacingTop=-1;spacingLeft=3;spacingRight=3;rotatable=0;labelPosition=right;points=[];portConstraint=eastwest;strokeColor=inherit;" parent="YF8G4LJnXHX8K3Hs0ZbI-48" vertex="1">
          <mxGeometry y="56" width="160" height="8" as="geometry" />
        </mxCell>
        <mxCell id="YF8G4LJnXHX8K3Hs0ZbI-51" value="&amp;lt;&amp;lt;abstract&amp;gt;&amp;gt;&lt;br&gt;Composite" style="swimlane;fontStyle=1;align=center;verticalAlign=top;childLayout=stackLayout;horizontal=1;startSize=40;horizontalStack=0;resizeParent=1;resizeParentMax=0;resizeLast=0;collapsible=1;marginBottom=0;whiteSpace=wrap;html=1;" parent="WIyWlLk6GJQsqaUBKTNV-1" vertex="1">
          <mxGeometry x="860" y="436" width="160" height="48" as="geometry" />
        </mxCell>
        <mxCell id="YF8G4LJnXHX8K3Hs0ZbI-53" value="" style="line;strokeWidth=1;fillColor=none;align=left;verticalAlign=middle;spacingTop=-1;spacingLeft=3;spacingRight=3;rotatable=0;labelPosition=right;points=[];portConstraint=eastwest;strokeColor=inherit;" parent="YF8G4LJnXHX8K3Hs0ZbI-51" vertex="1">
          <mxGeometry y="40" width="160" height="8" as="geometry" />
        </mxCell>
        <mxCell id="YF8G4LJnXHX8K3Hs0ZbI-54" value="" style="endArrow=block;endSize=16;endFill=0;html=1;rounded=0;fillColor=#dae8fc;strokeColor=#6c8ebf;" parent="WIyWlLk6GJQsqaUBKTNV-1" source="YF8G4LJnXHX8K3Hs0ZbI-51" edge="1">
          <mxGeometry width="160" relative="1" as="geometry">
            <mxPoint x="870" y="333" as="sourcePoint" />
            <mxPoint x="749.9999999999998" y="463.39622641509425" as="targetPoint" />
          </mxGeometry>
        </mxCell>
        <mxCell id="YF8G4LJnXHX8K3Hs0ZbI-55" value="Selector" style="swimlane;fontStyle=1;align=center;verticalAlign=top;childLayout=stackLayout;horizontal=1;startSize=30;horizontalStack=0;resizeParent=1;resizeParentMax=0;resizeLast=0;collapsible=1;marginBottom=0;whiteSpace=wrap;html=1;" parent="WIyWlLk6GJQsqaUBKTNV-1" vertex="1">
          <mxGeometry x="1070" y="386" width="160" height="38" as="geometry" />
        </mxCell>
        <mxCell id="YF8G4LJnXHX8K3Hs0ZbI-57" value="" style="line;strokeWidth=1;fillColor=none;align=left;verticalAlign=middle;spacingTop=-1;spacingLeft=3;spacingRight=3;rotatable=0;labelPosition=right;points=[];portConstraint=eastwest;strokeColor=inherit;" parent="YF8G4LJnXHX8K3Hs0ZbI-55" vertex="1">
          <mxGeometry y="30" width="160" height="8" as="geometry" />
        </mxCell>
        <mxCell id="YF8G4LJnXHX8K3Hs0ZbI-58" value="Sequence" style="swimlane;fontStyle=1;align=center;verticalAlign=top;childLayout=stackLayout;horizontal=1;startSize=30;horizontalStack=0;resizeParent=1;resizeParentMax=0;resizeLast=0;collapsible=1;marginBottom=0;whiteSpace=wrap;html=1;" parent="WIyWlLk6GJQsqaUBKTNV-1" vertex="1">
          <mxGeometry x="1070" y="436" width="160" height="38" as="geometry" />
        </mxCell>
        <mxCell id="YF8G4LJnXHX8K3Hs0ZbI-59" value="" style="line;strokeWidth=1;fillColor=none;align=left;verticalAlign=middle;spacingTop=-1;spacingLeft=3;spacingRight=3;rotatable=0;labelPosition=right;points=[];portConstraint=eastwest;strokeColor=inherit;" parent="YF8G4LJnXHX8K3Hs0ZbI-58" vertex="1">
          <mxGeometry y="30" width="160" height="8" as="geometry" />
        </mxCell>
        <mxCell id="YF8G4LJnXHX8K3Hs0ZbI-60" value="Parallel" style="swimlane;fontStyle=1;align=center;verticalAlign=top;childLayout=stackLayout;horizontal=1;startSize=30;horizontalStack=0;resizeParent=1;resizeParentMax=0;resizeLast=0;collapsible=1;marginBottom=0;whiteSpace=wrap;html=1;" parent="WIyWlLk6GJQsqaUBKTNV-1" vertex="1">
          <mxGeometry x="1070" y="482" width="160" height="64" as="geometry" />
        </mxCell>
        <mxCell id="YF8G4LJnXHX8K3Hs0ZbI-65" value="+ successPolicy : Policy" style="text;strokeColor=none;fillColor=none;align=left;verticalAlign=top;spacingLeft=4;spacingRight=4;overflow=hidden;rotatable=0;points=[[0,0.5],[1,0.5]];portConstraint=eastwest;whiteSpace=wrap;html=1;" parent="YF8G4LJnXHX8K3Hs0ZbI-60" vertex="1">
          <mxGeometry y="30" width="160" height="26" as="geometry" />
        </mxCell>
        <mxCell id="YF8G4LJnXHX8K3Hs0ZbI-61" value="" style="line;strokeWidth=1;fillColor=none;align=left;verticalAlign=middle;spacingTop=-1;spacingLeft=3;spacingRight=3;rotatable=0;labelPosition=right;points=[];portConstraint=eastwest;strokeColor=inherit;" parent="YF8G4LJnXHX8K3Hs0ZbI-60" vertex="1">
          <mxGeometry y="56" width="160" height="8" as="geometry" />
        </mxCell>
        <mxCell id="YF8G4LJnXHX8K3Hs0ZbI-62" value="" style="endArrow=block;endSize=16;endFill=0;html=1;rounded=0;" parent="WIyWlLk6GJQsqaUBKTNV-1" source="YF8G4LJnXHX8K3Hs0ZbI-55" target="YF8G4LJnXHX8K3Hs0ZbI-51" edge="1">
          <mxGeometry width="160" relative="1" as="geometry">
            <mxPoint x="870" y="445" as="sourcePoint" />
            <mxPoint x="760" y="457" as="targetPoint" />
          </mxGeometry>
        </mxCell>
        <mxCell id="YF8G4LJnXHX8K3Hs0ZbI-63" value="" style="endArrow=block;endSize=16;endFill=0;html=1;rounded=0;" parent="WIyWlLk6GJQsqaUBKTNV-1" source="YF8G4LJnXHX8K3Hs0ZbI-58" target="YF8G4LJnXHX8K3Hs0ZbI-51" edge="1">
          <mxGeometry width="160" relative="1" as="geometry">
            <mxPoint x="1080" y="423" as="sourcePoint" />
            <mxPoint x="1030" y="429" as="targetPoint" />
          </mxGeometry>
        </mxCell>
        <mxCell id="YF8G4LJnXHX8K3Hs0ZbI-64" value="" style="endArrow=block;endSize=16;endFill=0;html=1;rounded=0;" parent="WIyWlLk6GJQsqaUBKTNV-1" source="YF8G4LJnXHX8K3Hs0ZbI-60" target="YF8G4LJnXHX8K3Hs0ZbI-51" edge="1">
          <mxGeometry width="160" relative="1" as="geometry">
            <mxPoint x="1080" y="454" as="sourcePoint" />
            <mxPoint x="1030" y="448" as="targetPoint" />
          </mxGeometry>
        </mxCell>
        <mxCell id="YF8G4LJnXHX8K3Hs0ZbI-66" value="«enum»&lt;br&gt;&lt;b&gt;Policy&lt;br&gt;&lt;br&gt;RequireOne,&lt;br&gt;RequireAll&lt;br&gt;&lt;/b&gt;" style="html=1;whiteSpace=wrap;" parent="WIyWlLk6GJQsqaUBKTNV-1" vertex="1">
          <mxGeometry x="1241" y="482" width="89" height="98" as="geometry" />
        </mxCell>
        <mxCell id="YF8G4LJnXHX8K3Hs0ZbI-67" value="Decorator" style="swimlane;fontStyle=1;align=center;verticalAlign=top;childLayout=stackLayout;horizontal=1;startSize=30;horizontalStack=0;resizeParent=1;resizeParentMax=0;resizeLast=0;collapsible=1;marginBottom=0;whiteSpace=wrap;html=1;" parent="WIyWlLk6GJQsqaUBKTNV-1" vertex="1">
          <mxGeometry x="860" y="330" width="160" height="64" as="geometry" />
        </mxCell>
        <mxCell id="YF8G4LJnXHX8K3Hs0ZbI-68" value="+ decorate : Func&amp;lt;Result&amp;gt;" style="text;strokeColor=none;fillColor=none;align=left;verticalAlign=top;spacingLeft=4;spacingRight=4;overflow=hidden;rotatable=0;points=[[0,0.5],[1,0.5]];portConstraint=eastwest;whiteSpace=wrap;html=1;" parent="YF8G4LJnXHX8K3Hs0ZbI-67" vertex="1">
          <mxGeometry y="30" width="160" height="26" as="geometry" />
        </mxCell>
        <mxCell id="YF8G4LJnXHX8K3Hs0ZbI-69" value="" style="line;strokeWidth=1;fillColor=none;align=left;verticalAlign=middle;spacingTop=-1;spacingLeft=3;spacingRight=3;rotatable=0;labelPosition=right;points=[];portConstraint=eastwest;strokeColor=inherit;" parent="YF8G4LJnXHX8K3Hs0ZbI-67" vertex="1">
          <mxGeometry y="56" width="160" height="8" as="geometry" />
        </mxCell>
        <mxCell id="YF8G4LJnXHX8K3Hs0ZbI-70" value="" style="endArrow=block;endSize=16;endFill=0;html=1;rounded=0;fillColor=#f8cecc;strokeColor=#b85450;" parent="WIyWlLk6GJQsqaUBKTNV-1" source="YF8G4LJnXHX8K3Hs0ZbI-67" target="YF8G4LJnXHX8K3Hs0ZbI-40" edge="1">
          <mxGeometry width="160" relative="1" as="geometry">
            <mxPoint x="870" y="333" as="sourcePoint" />
            <mxPoint x="759.9999999999998" y="375.84905660377365" as="targetPoint" />
          </mxGeometry>
        </mxCell>
        <mxCell id="YF8G4LJnXHX8K3Hs0ZbI-71" value="" style="endArrow=block;endSize=16;endFill=0;html=1;rounded=0;" parent="WIyWlLk6GJQsqaUBKTNV-1" source="YF8G4LJnXHX8K3Hs0ZbI-37" target="YF8G4LJnXHX8K3Hs0ZbI-32" edge="1">
          <mxGeometry width="160" relative="1" as="geometry">
            <mxPoint x="916" y="258" as="sourcePoint" />
            <mxPoint x="749" y="350" as="targetPoint" />
            <Array as="points">
              <mxPoint x="810" y="229" />
              <mxPoint x="810" y="280" />
            </Array>
          </mxGeometry>
        </mxCell>
        <mxCell id="YF8G4LJnXHX8K3Hs0ZbI-72" value="" style="endArrow=block;endSize=16;endFill=0;html=1;rounded=0;" parent="WIyWlLk6GJQsqaUBKTNV-1" source="YF8G4LJnXHX8K3Hs0ZbI-44" target="YF8G4LJnXHX8K3Hs0ZbI-32" edge="1">
          <mxGeometry width="160" relative="1" as="geometry">
            <mxPoint x="870" y="253" as="sourcePoint" />
            <mxPoint x="770" y="271" as="targetPoint" />
            <Array as="points">
              <mxPoint x="810" y="290" />
              <mxPoint x="810" y="280" />
            </Array>
          </mxGeometry>
        </mxCell>
        <mxCell id="YF8G4LJnXHX8K3Hs0ZbI-73" value="" style="endArrow=block;endSize=16;endFill=0;html=1;rounded=0;" parent="WIyWlLk6GJQsqaUBKTNV-1" source="YF8G4LJnXHX8K3Hs0ZbI-67" target="YF8G4LJnXHX8K3Hs0ZbI-32" edge="1">
          <mxGeometry width="160" relative="1" as="geometry">
            <mxPoint x="870" y="297" as="sourcePoint" />
            <mxPoint x="770" y="290" as="targetPoint" />
            <Array as="points">
              <mxPoint x="810" y="360" />
              <mxPoint x="810" y="280" />
            </Array>
          </mxGeometry>
        </mxCell>
        <mxCell id="YF8G4LJnXHX8K3Hs0ZbI-74" value="" style="endArrow=block;endSize=16;endFill=0;html=1;rounded=0;" parent="WIyWlLk6GJQsqaUBKTNV-1" source="YF8G4LJnXHX8K3Hs0ZbI-51" target="YF8G4LJnXHX8K3Hs0ZbI-32" edge="1">
          <mxGeometry width="160" relative="1" as="geometry">
            <mxPoint x="870" y="349" as="sourcePoint" />
            <mxPoint x="770" y="314" as="targetPoint" />
            <Array as="points">
              <mxPoint x="810" y="460" />
              <mxPoint x="810" y="280" />
            </Array>
          </mxGeometry>
        </mxCell>
        <mxCell id="YF8G4LJnXHX8K3Hs0ZbI-75" value="" style="endArrow=block;endSize=16;endFill=0;html=1;rounded=0;" parent="WIyWlLk6GJQsqaUBKTNV-1" source="YF8G4LJnXHX8K3Hs0ZbI-48" target="YF8G4LJnXHX8K3Hs0ZbI-32" edge="1">
          <mxGeometry width="160" relative="1" as="geometry">
            <mxPoint x="916" y="446" as="sourcePoint" />
            <mxPoint x="742" y="322" as="targetPoint" />
            <Array as="points">
              <mxPoint x="810" y="540" />
              <mxPoint x="810" y="280" />
            </Array>
          </mxGeometry>
        </mxCell>
        <mxCell id="v3wCEwQuPMCucLt21_t0-8" style="edgeStyle=orthogonalEdgeStyle;rounded=0;orthogonalLoop=1;jettySize=auto;html=1;" edge="1" parent="WIyWlLk6GJQsqaUBKTNV-1" source="SkKZwYwoFkYHnB9e31s7-0" target="v3wCEwQuPMCucLt21_t0-7">
          <mxGeometry relative="1" as="geometry" />
        </mxCell>
        <mxCell id="SkKZwYwoFkYHnB9e31s7-0" value="Root" style="rounded=1;whiteSpace=wrap;html=1;" parent="WIyWlLk6GJQsqaUBKTNV-1" vertex="1">
          <mxGeometry x="185" y="710" width="120" height="60" as="geometry" />
        </mxCell>
        <mxCell id="SkKZwYwoFkYHnB9e31s7-2" value="Attack" style="rounded=1;whiteSpace=wrap;html=1;" parent="WIyWlLk6GJQsqaUBKTNV-1" vertex="1">
          <mxGeometry x="130" y="1135" width="120" height="60" as="geometry" />
        </mxCell>
        <mxCell id="v3wCEwQuPMCucLt21_t0-1" style="edgeStyle=orthogonalEdgeStyle;rounded=0;orthogonalLoop=1;jettySize=auto;html=1;" edge="1" parent="WIyWlLk6GJQsqaUBKTNV-1" source="SkKZwYwoFkYHnB9e31s7-5" target="SkKZwYwoFkYHnB9e31s7-7">
          <mxGeometry relative="1" as="geometry" />
        </mxCell>
        <mxCell id="v3wCEwQuPMCucLt21_t0-3" style="edgeStyle=orthogonalEdgeStyle;rounded=0;orthogonalLoop=1;jettySize=auto;html=1;" edge="1" parent="WIyWlLk6GJQsqaUBKTNV-1" source="SkKZwYwoFkYHnB9e31s7-5" target="v3wCEwQuPMCucLt21_t0-2">
          <mxGeometry relative="1" as="geometry" />
        </mxCell>
        <mxCell id="SkKZwYwoFkYHnB9e31s7-5" value="Sequence" style="rounded=1;whiteSpace=wrap;html=1;" parent="WIyWlLk6GJQsqaUBKTNV-1" vertex="1">
          <mxGeometry x="45" y="910" width="120" height="60" as="geometry" />
        </mxCell>
        <mxCell id="SkKZwYwoFkYHnB9e31s7-7" value="Seek" style="rounded=1;whiteSpace=wrap;html=1;" parent="WIyWlLk6GJQsqaUBKTNV-1" vertex="1">
          <mxGeometry x="-40" y="1021" width="120" height="60" as="geometry" />
        </mxCell>
        <mxCell id="SkKZwYwoFkYHnB9e31s7-15" value="Failure" style="rounded=1;whiteSpace=wrap;html=1;fillColor=#f8cecc;strokeColor=#b85450;" parent="WIyWlLk6GJQsqaUBKTNV-1" vertex="1">
          <mxGeometry x="-140" y="1150" width="60" height="30" as="geometry" />
        </mxCell>
        <mxCell id="SkKZwYwoFkYHnB9e31s7-16" value="Running" style="rounded=1;whiteSpace=wrap;html=1;fillColor=#d5e8d4;strokeColor=#82b366;" parent="WIyWlLk6GJQsqaUBKTNV-1" vertex="1">
          <mxGeometry x="-260" y="1000" width="60" height="30" as="geometry" />
        </mxCell>
        <mxCell id="SkKZwYwoFkYHnB9e31s7-21" value="Success" style="rounded=1;whiteSpace=wrap;html=1;fillColor=#dae8fc;strokeColor=#6c8ebf;" parent="WIyWlLk6GJQsqaUBKTNV-1" vertex="1">
          <mxGeometry x="20" y="890" width="60" height="30" as="geometry" />
        </mxCell>
        <mxCell id="NlXv8BfwX9cSRuUijsfn-1" value="Selector" style="rounded=0;whiteSpace=wrap;html=1;" parent="WIyWlLk6GJQsqaUBKTNV-1" vertex="1">
          <mxGeometry x="-190" y="860" width="80" height="20" as="geometry" />
        </mxCell>
        <mxCell id="NlXv8BfwX9cSRuUijsfn-2" value="Sequence" style="rounded=0;whiteSpace=wrap;html=1;" parent="WIyWlLk6GJQsqaUBKTNV-1" vertex="1">
          <mxGeometry x="-190" y="810" width="80" height="20" as="geometry" />
        </mxCell>
        <mxCell id="v3wCEwQuPMCucLt21_t0-5" style="edgeStyle=orthogonalEdgeStyle;rounded=0;orthogonalLoop=1;jettySize=auto;html=1;entryX=0.5;entryY=0;entryDx=0;entryDy=0;" edge="1" parent="WIyWlLk6GJQsqaUBKTNV-1" source="v3wCEwQuPMCucLt21_t0-2" target="SkKZwYwoFkYHnB9e31s7-2">
          <mxGeometry relative="1" as="geometry" />
        </mxCell>
        <mxCell id="v3wCEwQuPMCucLt21_t0-2" value="Condition&lt;br&gt;(is in attack range)" style="rounded=1;whiteSpace=wrap;html=1;" vertex="1" parent="WIyWlLk6GJQsqaUBKTNV-1">
          <mxGeometry x="130" y="1021" width="120" height="60" as="geometry" />
        </mxCell>
        <mxCell id="v3wCEwQuPMCucLt21_t0-4" value="Success" style="rounded=1;whiteSpace=wrap;html=1;fillColor=#dae8fc;strokeColor=#6c8ebf;" vertex="1" parent="WIyWlLk6GJQsqaUBKTNV-1">
          <mxGeometry x="-60" y="1010" width="60" height="30" as="geometry" />
        </mxCell>
        <mxCell id="v3wCEwQuPMCucLt21_t0-6" value="Partrol" style="rounded=1;whiteSpace=wrap;html=1;" vertex="1" parent="WIyWlLk6GJQsqaUBKTNV-1">
          <mxGeometry x="330" y="910" width="120" height="60" as="geometry" />
        </mxCell>
        <mxCell id="v3wCEwQuPMCucLt21_t0-9" style="edgeStyle=orthogonalEdgeStyle;rounded=0;orthogonalLoop=1;jettySize=auto;html=1;" edge="1" parent="WIyWlLk6GJQsqaUBKTNV-1" source="v3wCEwQuPMCucLt21_t0-7" target="SkKZwYwoFkYHnB9e31s7-5">
          <mxGeometry relative="1" as="geometry">
            <Array as="points">
              <mxPoint x="245" y="890" />
              <mxPoint x="105" y="890" />
            </Array>
          </mxGeometry>
        </mxCell>
        <mxCell id="v3wCEwQuPMCucLt21_t0-10" style="edgeStyle=orthogonalEdgeStyle;rounded=0;orthogonalLoop=1;jettySize=auto;html=1;entryX=0.5;entryY=0;entryDx=0;entryDy=0;" edge="1" parent="WIyWlLk6GJQsqaUBKTNV-1" source="v3wCEwQuPMCucLt21_t0-7" target="v3wCEwQuPMCucLt21_t0-6">
          <mxGeometry relative="1" as="geometry">
            <Array as="points">
              <mxPoint x="245" y="890" />
              <mxPoint x="390" y="890" />
            </Array>
          </mxGeometry>
        </mxCell>
        <mxCell id="v3wCEwQuPMCucLt21_t0-7" value="Selector" style="rounded=1;whiteSpace=wrap;html=1;" vertex="1" parent="WIyWlLk6GJQsqaUBKTNV-1">
          <mxGeometry x="185" y="810" width="120" height="60" as="geometry" />
        </mxCell>
      </root>
    </mxGraphModel>
  </diagram>
</mxfile>
